# xmcd
#
# Track frame offsets:
#	150
#	15005
#	29906
#	45153
#	58958
#	73215
#	87870
#	103169
#	120638
#	132859
#	147140
#	161275
#	177866
#	194332
#	208298
#	226883
#	242645
#	257428
#	271384
#	287005
#
# Disc length: 4070 seconds
#
# Revision: 0
# Processed by: cddbd v1.5.2PL0 Copyright (c) Steve Scherf et al.
# Submitted via: EasyCDDAExtractor 11.0.3.1
#
DISCID=1b0fe414
DTITLE=Anne Mattila - 40 unohtumatonta laulua cd2
DYEAR=2008
DGENRE=tango
TTITLE0=Sielu salamoi
TTITLE1=Lempeät tuulet
TTITLE2=Kuljettaa
TTITLE3=Pieniä sanoja
TTITLE4=Tähtisilmä talviyön
TTITLE5=Ei kerro tuuli
TTITLE6=Lähiöprinsessa
TTITLE7=Surusilmä
TTITLE8=Toivon sulle
TTITLE9=Anna paljon, pyydä vähän
TTITLE10=Vie
TTITLE11=Ravintola sydänsuru
TTITLE12=Kun silmät suljen
TTITLE13=Kuin helminauhaa
TTITLE14=Et vielä saa lopettaa
TTITLE15=Luovaa hulluutta
TTITLE16=Kuin iltatuuleen
TTITLE17=Vielä virtaa vedet
TTITLE18=Voima rakkauden
TTITLE19=Viimeinen
EXTD=
EXTT0=
EXTT1=
EXTT2=
EXTT3=
EXTT4=
EXTT5=
EXTT6=
EXTT7=
EXTT8=
EXTT9=
EXTT10=
EXTT11=
EXTT12=
EXTT13=
EXTT14=
EXTT15=
EXTT16=
EXTT17=
EXTT18=
EXTT19=
PLAYORDER=
